mtllib cantilever_center_4px.mtl

o d5951a76-9c2e-4e9b-b662-4340d8bd2b44
v 0.53125 0.6875 1.375
v 0.53125 0.6875 -5.5
v 0.53125 0.625 1.375
v 0.53125 0.625 -5.395833333333333
v 0.46875 0.6875 1.375
v 0.46875 0.6875 -5.5
v 0.46875 0.625 1.375
v 0.46875 0.625 -5.395833333333333
vt 1.0 0.875
vt 1.0 1.0
vt 0.0 1.0
vt 0.0 0.875
vt 1.0 0.875
vt 1.0 1.0
vt 0.0 1.0
vt 0.0 0.875
vt 1.0 1.0
vt 0.0 1.0
vt 0.0 0.9375
vt 1.0 0.9375
vt 1.0 0.9375
vt 0.0 0.9375
vt 0.0 0.875
vt 1.0 0.875
vt 0.0625 0.875
vt 0.0625 1.0
vt 0.0 1.0
vt 0.0 0.875
vt 0.0625 0.875
vt 0.0625 1.0
vt 0.0 1.0
vt 0.0 0.875
vn 1.0 0.0 0.0
vn -1.0 0.0 0.0
vn 0.0 1.0 0.0
vn 0.0 -1.0 0.0
vn 0.0 0.0 1.0
vn 0.0 0.0 -1.0
usemtl m_1fa7325d-e2d7-2d27-270d-f0a5323757e4
f 4/1/1 2/2/1 1/3/1 3/4/1
f 7/5/2 5/6/2 6/7/2 8/8/2
f 1/9/3 2/10/3 6/11/3 5/12/3
f 4/13/4 3/14/4 7/15/4 8/16/4
f 3/17/5 1/18/5 5/19/5 7/20/5
f 8/21/6 6/22/6 2/23/6 4/24/6
o 4a292499-67d3-4b27-8fa8-f519f69417f3
v 0.53125 -3.4375 1.375
v 0.53125 0.7035779923571102 -5.526796653928517
v 0.53125 -3.5103868986855664 1.375
v 0.53125 0.6499846845000762 -5.5589526386427375
v 0.46875 -3.4375 1.375
v 0.46875 0.7035779923571102 -5.526796653928517
v 0.46875 -3.5103868986855664 1.375
v 0.46875 0.6499846845000762 -5.5589526386427375
vt 1.0 0.875
vt 1.0 1.0
vt 0.0 1.0
vt 0.0 0.875
vt 1.0 0.875
vt 1.0 1.0
vt 0.0 1.0
vt 0.0 0.875
vt 1.0 1.0
vt 0.0 1.0
vt 0.0 0.9375
vt 1.0 0.9375
vt 1.0 0.9375
vt 0.0 0.9375
vt 0.0 0.875
vt 1.0 0.875
vt 0.0625 0.875
vt 0.0625 1.0
vt 0.0 1.0
vt 0.0 0.875
vt 0.0625 0.875
vt 0.0625 1.0
vt 0.0 1.0
vt 0.0 0.875
vn 1.0 0.0 0.0
vn -1.0 0.0 0.0
vn 0.0 1.0 0.0
vn 0.0 -1.0 0.0
vn 0.0 0.0 1.0
vn 0.0 0.0 -1.0
usemtl m_1fa7325d-e2d7-2d27-270d-f0a5323757e4
f 12/25/7 10/26/7 9/27/7 11/28/7
f 15/29/8 13/30/8 14/31/8 16/32/8
f 9/33/9 10/34/9 14/35/9 13/36/9
f 12/37/10 11/38/10 15/39/10 16/40/10
f 11/41/11 9/42/11 13/43/11 15/44/11
f 16/45/12 14/46/12 10/47/12 12/48/12
o ef7b03f5-194b-4b12-a1e9-ff336a1da24a
v 0.5234375 -1.7135336336591298 -1.6197554417107263
v 0.5234375 -1.8843400018679728 -5.531864453345079
v 0.5234375 -1.7572706268391243 -1.5468604530774028
v 0.5234375 -1.9311703872546224 -5.52981979456233
v 0.4765625 -1.8843400018679728 -5.531864453345079
v 0.4765625 -1.7135336336591298 -1.6197554417107263
v 0.4765625 -1.9311703872546224 -5.52981979456233
v 0.4765625 -1.7572706268391243 -1.5468604530774028
vt 0.0 1.0
vt 0.0625 1.0
vt 0.0625 0.875
vt 0.0 0.875
vt 0.0 1.0
vt 1.0 1.0
vt 1.0 0.875
vt 0.0 0.875
vt 0.0 1.0
vt 0.0625 1.0
vt 0.0625 0.875
vt 0.0 0.875
vt 0.0 1.0
vt 1.0 1.0
vt 1.0 0.875
vt 0.0 0.875
vt 0.0 0.9375
vt 0.0 1.0
vt 1.0 1.0
vt 1.0 0.9375
vt 0.0 0.875
vt 0.0 0.9375
vt 1.0 0.9375
vt 1.0 0.875
vn 0.0 -0.043619387365336 -0.9990482215818578
vn 1.0 0.0 0.0
vn 0.0 0.043619387365336 0.9990482215818578
vn -1.0 0.0 0.0
vn 0.0 0.9990482215818578 -0.043619387365336
vn 0.0 -0.9990482215818578 0.043619387365336
usemtl m_53ac917a-6908-652e-015c-c53640b020ed
f 20/52/13 23/51/13 21/50/13 18/49/13
f 19/56/14 20/55/14 18/54/14 17/53/14
f 24/60/15 19/59/15 17/58/15 22/57/15
f 23/64/16 24/63/16 22/62/16 21/61/16
f 22/68/17 17/67/17 18/66/17 21/65/17
f 23/72/18 20/71/18 19/70/18 24/69/18
o 8689bca7-b42d-42f2-9664-0e0df4f5b29c
v 0.53125 -1.90625 -5.484375
v 0.53125 -1.90625 -5.515625
v 0.53125 -2.0 -5.484375
v 0.53125 -2.0 -5.515625
v 0.46875 -1.90625 -5.515625
v 0.46875 -1.90625 -5.484375
v 0.46875 -2.0 -5.515625
v 0.46875 -2.0 -5.484375
vt 0.375 1.0
vt 0.5 1.0
vt 0.5 0.78125
vt 0.375 0.78125
vt 0.375 1.0
vt 0.46875 1.0
vt 0.46875 0.78125
vt 0.375 0.78125
vt 0.375 1.0
vt 0.5 1.0
vt 0.5 0.78125
vt 0.375 0.78125
vt 0.375 1.0
vt 0.46875 1.0
vt 0.46875 0.78125
vt 0.375 0.78125
vt 0.375 1.0
vt 0.5 1.0
vt 0.5 0.84375
vt 0.375 0.84375
vt 0.375 1.0
vt 0.5 1.0
vt 0.5 0.84375
vt 0.375 0.84375
vn 0.0 0.0 -1.0
vn 1.0 0.0 0.0
vn 0.0 0.0 1.0
vn -1.0 0.0 0.0
vn 0.0 1.0 0.0
vn 0.0 -1.0 0.0
usemtl m_d01e7a2a-8f73-2e81-4c23-374b2442e0d3
f 28/76/19 31/75/19 29/74/19 26/73/19
f 27/80/20 28/79/20 26/78/20 25/77/20
f 32/84/21 27/83/21 25/82/21 30/81/21
f 31/88/22 32/87/22 30/86/22 29/85/22
f 30/92/23 25/91/23 26/90/23 29/89/23
f 31/96/24 28/95/24 27/94/24 32/93/24
