mtllib cantilever_inner_8px.mtl

o e1a30338-44d4-4386-a293-2483c326ea27
v 1.09375 0.6875 1.25
v 1.09375 1.125 -0.5
v 1.09375 0.623076474599724 1.25
v 1.09375 1.0432316792996497 -0.4306208187997028
v 1.03125 0.6875 1.25
v 1.03125 1.125 -0.5
v 1.03125 0.623076474599724 1.25
v 1.03125 1.0432316792996497 -0.4306208187997028
vt 1.0 0.875
vt 1.0 1.0
vt 0.0 1.0
vt 0.0 0.875
vt 1.0 0.875
vt 1.0 1.0
vt 0.0 1.0
vt 0.0 0.875
vt 1.0 1.0
vt 0.0 1.0
vt 0.0 0.9375
vt 1.0 0.9375
vt 1.0 0.9375
vt 0.0 0.9375
vt 0.0 0.875
vt 1.0 0.875
vt 0.0625 0.875
vt 0.0625 1.0
vt 0.0 1.0
vt 0.0 0.875
vt 0.0625 0.875
vt 0.0625 1.0
vt 0.0 1.0
vt 0.0 0.875
vn 1.0 0.0 0.0
vn -1.0 0.0 0.0
vn 0.0 1.0 0.0
vn 0.0 -1.0 0.0
vn 0.0 0.0 1.0
vn 0.0 0.0 -1.0
usemtl m_1fa7325d-e2d7-2d27-270d-f0a5323757e4
f 4/1/1 2/2/1 1/3/1 3/4/1
f 7/5/2 5/6/2 6/7/2 8/8/2
f 1/9/3 2/10/3 6/11/3 5/12/3
f 4/13/4 3/14/4 7/15/4 8/16/4
f 3/17/5 1/18/5 5/19/5 7/20/5
f 8/21/6 6/22/6 2/23/6 4/24/6
o 10ef4aba-e31d-44b2-9818-46d428d3092c
v 1.09375 -0.9375 1.25
v 1.09375 1.1488284104803996 -0.5202180452560967
v 1.09375 -1.0360265834734115 1.25
v 1.09375 1.1083923199682062 -0.5678748662168962
v 1.03125 -0.9375 1.25
v 1.03125 1.1488284104803996 -0.5202180452560967
v 1.03125 -1.0360265834734115 1.25
v 1.03125 1.1083923199682062 -0.5678748662168962
vt 1.0 0.875
vt 1.0 1.0
vt 0.0 1.0
vt 0.0 0.875
vt 1.0 0.875
vt 1.0 1.0
vt 0.0 1.0
vt 0.0 0.875
vt 1.0 1.0
vt 0.0 1.0
vt 0.0 0.9375
vt 1.0 0.9375
vt 1.0 0.9375
vt 0.0 0.9375
vt 0.0 0.875
vt 1.0 0.875
vt 0.0625 0.875
vt 0.0625 1.0
vt 0.0 1.0
vt 0.0 0.875
vt 0.0625 0.875
vt 0.0625 1.0
vt 0.0 1.0
vt 0.0 0.875
vn 1.0 0.0 0.0
vn -1.0 0.0 0.0
vn 0.0 1.0 0.0
vn 0.0 -1.0 0.0
vn 0.0 0.0 1.0
vn 0.0 0.0 -1.0
usemtl m_1fa7325d-e2d7-2d27-270d-f0a5323757e4
f 12/25/7 10/26/7 9/27/7 11/28/7
f 15/29/8 13/30/8 14/31/8 16/32/8
f 9/33/9 10/34/9 14/35/9 13/36/9
f 12/37/10 11/38/10 15/39/10 16/40/10
f 11/41/11 9/42/11 13/43/11 15/44/11
f 16/45/12 14/46/12 10/47/12 12/48/12
o 5f376ba2-30d8-4344-9421-6d89030afb8d
v 1.0859375 -0.20233230873732821 0.5432575506962224
v 1.0859375 -0.24791592100221427 -0.5007788174693206
v 1.0859375 -0.24757733788254702 0.5816128371434459
v 1.0859375 -0.2947463063888638 -0.49873415868657034
v 1.0390625 -0.24791592100221427 -0.5007788174693206
v 1.0390625 -0.20233230873732821 0.5432575506962224
v 1.0390625 -0.2947463063888638 -0.49873415868657034
v 1.0390625 -0.24757733788254702 0.5816128371434459
vt 0.0 1.0
vt 0.0625 1.0
vt 0.0625 0.875
vt 0.0 0.875
vt 0.0 1.0
vt 1.0 1.0
vt 1.0 0.875
vt 0.0 0.875
vt 0.0 1.0
vt 0.0625 1.0
vt 0.0625 0.875
vt 0.0 0.875
vt 0.0 1.0
vt 1.0 1.0
vt 1.0 0.875
vt 0.0 0.875
vt 0.0 0.9375
vt 0.0 1.0
vt 1.0 1.0
vt 1.0 0.9375
vt 0.0 0.875
vt 0.0 0.9375
vt 1.0 0.9375
vt 1.0 0.875
vn 0.0 -0.043619387365336 -0.9990482215818578
vn 1.0 0.0 0.0
vn 0.0 0.043619387365336 0.9990482215818578
vn -1.0 0.0 0.0
vn 0.0 0.9990482215818578 -0.043619387365336
vn 0.0 -0.9990482215818578 0.043619387365336
usemtl m_53ac917a-6908-652e-015c-c53640b020ed
f 20/52/13 23/51/13 21/50/13 18/49/13
f 19/56/14 20/55/14 18/54/14 17/53/14
f 24/60/15 19/59/15 17/58/15 22/57/15
f 23/64/16 24/63/16 22/62/16 21/61/16
f 22/68/17 17/67/17 18/66/17 21/65/17
f 23/72/18 20/71/18 19/70/18 24/69/18
o 71a052a7-8e29-4098-8fe3-7cb01c3deb96
v 1.071875 -0.2956180870365607 0.37746417793306586
v 1.071875 -0.3812759006809695 -0.273171512343497
v 1.071875 -0.35758339087242386 0.38562206494681917
v 1.071875 -0.4432412045168327 -0.26501362532974393
v 1.053125 -0.3812759006809695 -0.273171512343497
v 1.053125 -0.2956180870365607 0.37746417793306586
v 1.053125 -0.4432412045168327 -0.26501362532974393
v 1.053125 -0.35758339087242386 0.38562206494681917
vt 0.0 1.0
vt 0.018750000000000044 1.0
vt 0.018750000000000044 0.9375
vt 0.0 0.9375
vt 0.125 1.0
vt 0.78125 1.0
vt 0.78125 0.9375
vt 0.125 0.9375
vt 0.0 1.0
vt 0.018750000000000044 1.0
vt 0.018750000000000044 0.9375
vt 0.0 0.9375
vt 0.125 1.0
vt 0.78125 1.0
vt 0.78125 0.9375
vt 0.125 0.9375
vt 0.0625 0.98125
vt 0.0625 1.0
vt 0.71875 1.0
vt 0.71875 0.98125
vt 0.0 0.98125
vt 0.0 1.0
vt 0.65625 1.0
vt 0.65625 0.98125
vn 0.0 -0.13052619222005157 -0.9914448613738104
vn 1.0 0.0 0.0
vn 0.0 0.13052619222005157 0.9914448613738104
vn -1.0 0.0 0.0
vn 0.0 0.9914448613738104 -0.13052619222005157
vn 0.0 -0.9914448613738104 0.13052619222005157
usemtl m_53ac917a-6908-652e-015c-c53640b020ed
f 28/76/19 31/75/19 29/74/19 26/73/19
f 27/80/20 28/79/20 26/78/20 25/77/20
f 32/84/21 27/83/21 25/82/21 30/81/21
f 31/88/22 32/87/22 30/86/22 29/85/22
f 30/92/23 25/91/23 26/90/23 29/89/23
f 31/96/24 28/95/24 27/94/24 32/93/24
o 06d94560-1d66-4a87-bd67-8e99341b1d04
v 1.078125 -0.203125 0.390625
v 1.078125 -0.203125 0.359375
v 1.078125 -0.359375 0.390625
v 1.078125 -0.359375 0.359375
v 1.046875 -0.203125 0.359375
v 1.046875 -0.203125 0.390625
v 1.046875 -0.359375 0.359375
v 1.046875 -0.359375 0.390625
vt 0.0 0.96875
vt 0.0 1.0
vt 0.15625 1.0
vt 0.15625 0.96875
vt 0.0 0.96875
vt 0.0 1.0
vt 0.15625 1.0
vt 0.15625 0.96875
vt 0.0 0.96875
vt 0.0 1.0
vt 0.15625 1.0
vt 0.15625 0.96875
vt 0.0 0.96875
vt 0.0 1.0
vt 0.15625 1.0
vt 0.15625 0.96875
vt 0.0 1.0
vt 0.03125 1.0
vt 0.03125 0.96875
vt 0.0 0.96875
vt 0.0 1.0
vt 0.03125 1.0
vt 0.03125 0.96875
vt 0.0 0.96875
vn 0.0 0.0 -1.0
vn 1.0 0.0 0.0
vn 0.0 0.0 1.0
vn -1.0 0.0 0.0
vn 0.0 1.0 0.0
vn 0.0 -1.0 0.0
usemtl m_53ac917a-6908-652e-015c-c53640b020ed
f 36/100/25 39/99/25 37/98/25 34/97/25
f 35/104/26 36/103/26 34/102/26 33/101/26
f 40/108/27 35/107/27 33/106/27 38/105/27
f 39/112/28 40/111/28 38/110/28 37/109/28
f 38/116/29 33/115/29 34/114/29 37/113/29
f 39/120/30 36/119/30 35/118/30 40/117/30
o cbd7b121-c48c-4275-8dc9-caf204f934f2
v 1.09375 -0.40625 -0.234375
v 1.09375 -0.40625 -0.265625
v 1.09375 -0.5 -0.234375
v 1.09375 -0.5 -0.265625
v 1.03125 -0.40625 -0.265625
v 1.03125 -0.40625 -0.234375
v 1.03125 -0.5 -0.265625
v 1.03125 -0.5 -0.234375
vt 0.375 1.0
vt 0.5 1.0
vt 0.5 0.78125
vt 0.375 0.78125
vt 0.375 1.0
vt 0.46875 1.0
vt 0.46875 0.78125
vt 0.375 0.78125
vt 0.375 1.0
vt 0.5 1.0
vt 0.5 0.78125
vt 0.375 0.78125
vt 0.375 1.0
vt 0.46875 1.0
vt 0.46875 0.78125
vt 0.375 0.78125
vt 0.375 1.0
vt 0.5 1.0
vt 0.5 0.84375
vt 0.375 0.84375
vt 0.375 1.0
vt 0.5 1.0
vt 0.5 0.84375
vt 0.375 0.84375
vn 0.0 0.0 -1.0
vn 1.0 0.0 0.0
vn 0.0 0.0 1.0
vn -1.0 0.0 0.0
vn 0.0 1.0 0.0
vn 0.0 -1.0 0.0
usemtl m_d01e7a2a-8f73-2e81-4c23-374b2442e0d3
f 44/124/31 47/123/31 45/122/31 42/121/31
f 43/128/32 44/127/32 42/126/32 41/125/32
f 48/132/33 43/131/33 41/130/33 46/129/33
f 47/136/34 48/135/34 46/134/34 45/133/34
f 46/140/35 41/139/35 42/138/35 45/137/35
f 47/144/36 44/143/36 43/142/36 48/141/36
o b5fd7dc4-ddf9-443e-ab4c-92192a73c6b3
v -0.03125 0.6875 1.25
v -0.03125 0.6875 -1.0
v -0.03125 0.625 1.25
v -0.03125 0.625 -0.9134615384615384
v -0.09375 0.6875 1.25
v -0.09375 0.6875 -1.0
v -0.09375 0.625 1.25
v -0.09375 0.625 -0.9134615384615384
vt 1.0 0.875
vt 1.0 1.0
vt 0.0 1.0
vt 0.0 0.875
vt 1.0 0.875
vt 1.0 1.0
vt 0.0 1.0
vt 0.0 0.875
vt 1.0 1.0
vt 0.0 1.0
vt 0.0 0.9375
vt 1.0 0.9375
vt 1.0 0.9375
vt 0.0 0.9375
vt 0.0 0.875
vt 1.0 0.875
vt 0.0625 0.875
vt 0.0625 1.0
vt 0.0 1.0
vt 0.0 0.875
vt 0.0625 0.875
vt 0.0625 1.0
vt 0.0 1.0
vt 0.0 0.875
vn 1.0 0.0 0.0
vn -1.0 0.0 0.0
vn 0.0 1.0 0.0
vn 0.0 -1.0 0.0
vn 0.0 0.0 1.0
vn 0.0 0.0 -1.0
usemtl m_1fa7325d-e2d7-2d27-270d-f0a5323757e4
f 52/145/37 50/146/37 49/147/37 51/148/37
f 55/149/38 53/150/38 54/151/38 56/152/38
f 49/153/39 50/154/39 54/155/39 53/156/39
f 52/157/40 51/158/40 55/159/40 56/160/40
f 51/161/41 49/162/41 53/163/41 55/164/41
f 56/165/42 54/166/42 50/167/42 52/168/42
o 6fa38e32-f6de-4728-942b-4bcd05daf40d
v -0.03125 -0.9375 1.25
v -0.03125 0.7057965798076362 -1.0253337258874964
v -0.03125 -1.014595844830467 1.25
v -0.03125 0.6551291280326437 -1.0619268855027688
v -0.09375 -0.9375 1.25
v -0.09375 0.7057965798076362 -1.0253337258874964
v -0.09375 -1.014595844830467 1.25
v -0.09375 0.6551291280326437 -1.0619268855027688
vt 1.0 0.875
vt 1.0 1.0
vt 0.0 1.0
vt 0.0 0.875
vt 1.0 0.875
vt 1.0 1.0
vt 0.0 1.0
vt 0.0 0.875
vt 1.0 1.0
vt 0.0 1.0
vt 0.0 0.9375
vt 1.0 0.9375
vt 1.0 0.9375
vt 0.0 0.9375
vt 0.0 0.875
vt 1.0 0.875
vt 0.0625 0.875
vt 0.0625 1.0
vt 0.0 1.0
vt 0.0 0.875
vt 0.0625 0.875
vt 0.0625 1.0
vt 0.0 1.0
vt 0.0 0.875
vn 1.0 0.0 0.0
vn -1.0 0.0 0.0
vn 0.0 1.0 0.0
vn 0.0 -1.0 0.0
vn 0.0 0.0 1.0
vn 0.0 0.0 -1.0
usemtl m_1fa7325d-e2d7-2d27-270d-f0a5323757e4
f 60/169/43 58/170/43 57/171/43 59/172/43
f 63/173/44 61/174/44 62/175/44 64/176/44
f 57/177/45 58/178/45 62/179/45 61/180/45
f 60/181/46 59/182/46 63/183/46 64/184/46
f 59/185/47 57/186/47 61/187/47 63/188/47
f 64/189/48 62/190/48 58/191/48 60/192/48
o db13a65c-3499-4800-ae95-1c73e714704f
v -0.03906249999999989 0.050287631704924285 -0.22445404443361905
v -0.03906249999999989 0.11714546003317228 -0.9886425190745325
v -0.03906249999999989 -0.0032521309528098646 -0.15032206536906412
v -0.03906249999999989 0.07044883356012166 -0.9927279445158288
v -0.08593749999999989 0.11714546003317228 -0.9886425190745325
v -0.08593749999999989 0.050287631704924285 -0.22445404443361905
v -0.08593749999999989 0.07044883356012166 -0.9927279445158288
v -0.08593749999999989 -0.0032521309528098646 -0.15032206536906412
vt 0.0 1.0
vt 0.0625 1.0
vt 0.0625 0.875
vt 0.0 0.875
vt 0.0 1.0
vt 1.0 1.0
vt 1.0 0.875
vt 0.0 0.875
vt 0.0 1.0
vt 0.0625 1.0
vt 0.0625 0.875
vt 0.0 0.875
vt 0.0 1.0
vt 1.0 1.0
vt 1.0 0.875
vt 0.0 0.875
vt 0.0 0.9375
vt 0.0 1.0
vt 1.0 1.0
vt 1.0 0.9375
vt 0.0 0.875
vt 0.0 0.9375
vt 1.0 0.9375
vt 1.0 0.875
vn 0.0 0.08715574274765818 -0.9961946980917455
vn 1.0 0.0 0.0
vn 0.0 -0.08715574274765818 0.9961946980917455
vn -1.0 0.0 0.0
vn 0.0 0.9961946980917455 0.08715574274765818
vn 0.0 -0.9961946980917455 -0.08715574274765818
usemtl m_53ac917a-6908-652e-015c-c53640b020ed
f 68/196/49 71/195/49 69/194/49 66/193/49
f 67/200/50 68/199/50 66/198/50 65/197/50
f 72/204/51 67/203/51 65/202/51 70/201/51
f 71/208/52 72/207/52 70/206/52 69/205/52
f 70/212/53 65/211/53 66/210/53 69/209/53
f 71/216/54 68/215/54 67/214/54 72/213/54
o 7e8fbb3b-75ae-4242-8c65-b10f3133e0f9
v -0.03125 0.09375 -0.953125
v -0.03125 0.09375 -0.984375
v -0.03125 0.0 -0.953125
v -0.03125 0.0 -0.984375
v -0.09375 0.09375 -0.984375
v -0.09375 0.09375 -0.953125
v -0.09375 0.0 -0.984375
v -0.09375 0.0 -0.953125
vt 0.375 1.0
vt 0.5 1.0
vt 0.5 0.78125
vt 0.375 0.78125
vt 0.375 1.0
vt 0.46875 1.0
vt 0.46875 0.78125
vt 0.375 0.78125
vt 0.375 1.0
vt 0.5 1.0
vt 0.5 0.78125
vt 0.375 0.78125
vt 0.375 1.0
vt 0.46875 1.0
vt 0.46875 0.78125
vt 0.375 0.78125
vt 0.375 1.0
vt 0.5 1.0
vt 0.5 0.84375
vt 0.375 0.84375
vt 0.375 1.0
vt 0.5 1.0
vt 0.5 0.84375
vt 0.375 0.84375
vn 0.0 0.0 -1.0
vn 1.0 0.0 0.0
vn 0.0 0.0 1.0
vn -1.0 0.0 0.0
vn 0.0 1.0 0.0
vn 0.0 -1.0 0.0
usemtl m_d01e7a2a-8f73-2e81-4c23-374b2442e0d3
f 76/220/55 79/219/55 77/218/55 74/217/55
f 75/224/56 76/223/56 74/222/56 73/221/56
f 80/228/57 75/227/57 73/226/57 78/225/57
f 79/232/58 80/231/58 78/230/58 77/229/58
f 78/236/59 73/235/59 74/234/59 77/233/59
f 79/240/60 76/239/60 75/238/60 80/237/60
