mtllib cantilever_inner_16px.mtl

o da32a0ad-7e2a-4ea4-97c5-d4a5bb150389
v 0.53125 0.6875 1.0
v 0.53125 0.6875 -2.5
v 0.53125 0.625 1.0
v 0.53125 0.625 -2.4166666666666665
v 0.46875 0.6875 1.0
v 0.46875 0.6875 -2.5
v 0.46875 0.625 1.0
v 0.46875 0.625 -2.4166666666666665
vt 1.0 0.875
vt 1.0 1.0
vt 0.0 1.0
vt 0.0 0.875
vt 1.0 0.875
vt 1.0 1.0
vt 0.0 1.0
vt 0.0 0.875
vt 1.0 1.0
vt 0.0 1.0
vt 0.0 0.9375
vt 1.0 0.9375
vt 1.0 0.9375
vt 0.0 0.9375
vt 0.0 0.875
vt 1.0 0.875
vt 0.0625 0.875
vt 0.0625 1.0
vt 0.0 1.0
vt 0.0 0.875
vt 0.0625 0.875
vt 0.0625 1.0
vt 0.0 1.0
vt 0.0 0.875
vn 1.0 0.0 0.0
vn -1.0 0.0 0.0
vn 0.0 1.0 0.0
vn 0.0 -1.0 0.0
vn 0.0 0.0 1.0
vn 0.0 0.0 -1.0
usemtl m_1fa7325d-e2d7-2d27-270d-f0a5323757e4
f 4/1/1 2/2/1 1/3/1 3/4/1
f 7/5/2 5/6/2 6/7/2 8/8/2
f 1/9/3 2/10/3 6/11/3 5/12/3
f 4/13/4 3/14/4 7/15/4 8/16/4
f 3/17/5 1/18/5 5/19/5 7/20/5
f 8/21/6 6/22/6 2/23/6 4/24/6
o f803faf6-f7bf-491b-ad5c-3b82f52d6c05
v 0.53125 -1.9375 1.0
v 0.53125 0.70625 -2.525
v 0.53125 -2.015625 1.0
v 0.53125 0.65625 -2.5625
v 0.46875 -1.9375 1.0
v 0.46875 0.70625 -2.525
v 0.46875 -2.015625 1.0
v 0.46875 0.65625 -2.5625
vt 1.0 0.875
vt 1.0 1.0
vt 0.0 1.0
vt 0.0 0.875
vt 1.0 0.875
vt 1.0 1.0
vt 0.0 1.0
vt 0.0 0.875
vt 1.0 1.0
vt 0.0 1.0
vt 0.0 0.9375
vt 1.0 0.9375
vt 1.0 0.9375
vt 0.0 0.9375
vt 0.0 0.875
vt 1.0 0.875
vt 0.0625 0.875
vt 0.0625 1.0
vt 0.0 1.0
vt 0.0 0.875
vt 0.0625 0.875
vt 0.0625 1.0
vt 0.0 1.0
vt 0.0 0.875
vn 1.0 0.0 0.0
vn -1.0 0.0 0.0
vn 0.0 1.0 0.0
vn 0.0 -1.0 0.0
vn 0.0 0.0 1.0
vn 0.0 0.0 -1.0
usemtl m_1fa7325d-e2d7-2d27-270d-f0a5323757e4
f 12/25/7 10/26/7 9/27/7 11/28/7
f 15/29/8 13/30/8 14/31/8 16/32/8
f 9/33/9 10/34/9 14/35/9 13/36/9
f 12/37/10 11/38/10 15/39/10 16/40/10
f 11/41/11 9/42/11 13/43/11 15/44/11
f 16/45/12 14/46/12 10/47/12 12/48/12
o 15ebbe5c-b8a6-4f13-96e1-877e670cd7b2
v 0.5234375 -0.6732163847951621 -0.7898781536064508
v 0.5234375 -0.7479159210022143 -2.5007788174693206
v 0.5234375 -0.7175548937670335 -0.7307601416439558
v 0.5234375 -0.7947463063888638 -2.4987341586865703
v 0.4765625 -0.7479159210022143 -2.5007788174693206
v 0.4765625 -0.6732163847951621 -0.7898781536064508
v 0.4765625 -0.7947463063888638 -2.4987341586865703
v 0.4765625 -0.7175548937670335 -0.7307601416439558
vt 0.0 1.0
vt 0.0625 1.0
vt 0.0625 0.875
vt 0.0 0.875
vt 0.0 1.0
vt 1.0 1.0
vt 1.0 0.875
vt 0.0 0.875
vt 0.0 1.0
vt 0.0625 1.0
vt 0.0625 0.875
vt 0.0 0.875
vt 0.0 1.0
vt 1.0 1.0
vt 1.0 0.875
vt 0.0 0.875
vt 0.0 0.9375
vt 0.0 1.0
vt 1.0 1.0
vt 1.0 0.9375
vt 0.0 0.875
vt 0.0 0.9375
vt 1.0 0.9375
vt 1.0 0.875
vn 0.0 -0.043619387365336 -0.9990482215818578
vn 1.0 0.0 0.0
vn 0.0 0.043619387365336 0.9990482215818578
vn -1.0 0.0 0.0
vn 0.0 0.9990482215818578 -0.043619387365336
vn 0.0 -0.9990482215818578 0.043619387365336
usemtl m_53ac917a-6908-652e-015c-c53640b020ed
f 20/52/13 23/51/13 21/50/13 18/49/13
f 19/56/14 20/55/14 18/54/14 17/53/14
f 24/60/15 19/59/15 17/58/15 22/57/15
f 23/64/16 24/63/16 22/62/16 21/61/16
f 22/68/17 17/67/17 18/66/17 21/65/17
f 23/72/18 20/71/18 19/70/18 24/69/18
o e6c71f17-8ced-44c1-86f6-07e6607d5f55
v 0.509375 -0.7956180870365607 -1.6225358220669341
v 0.509375 -0.8812759006809695 -2.273171512343497
v 0.509375 -0.8575833908724239 -1.6143779350531808
v 0.509375 -0.9432412045168327 -2.265013625329744
v 0.490625 -0.8812759006809695 -2.273171512343497
v 0.490625 -0.7956180870365607 -1.6225358220669341
v 0.490625 -0.9432412045168327 -2.265013625329744
v 0.490625 -0.8575833908724239 -1.6143779350531808
vt 0.0 1.0
vt 0.018750000000000044 1.0
vt 0.018750000000000044 0.9375
vt 0.0 0.9375
vt 0.125 1.0
vt 0.78125 1.0
vt 0.78125 0.9375
vt 0.125 0.9375
vt 0.0 1.0
vt 0.018750000000000044 1.0
vt 0.018750000000000044 0.9375
vt 0.0 0.9375
vt 0.125 1.0
vt 0.78125 1.0
vt 0.78125 0.9375
vt 0.125 0.9375
vt 0.0625 0.98125
vt 0.0625 1.0
vt 0.71875 1.0
vt 0.71875 0.98125
vt 0.0 0.98125
vt 0.0 1.0
vt 0.65625 1.0
vt 0.65625 0.98125
vn 0.0 -0.13052619222005157 -0.9914448613738104
vn 1.0 0.0 0.0
vn 0.0 0.13052619222005157 0.9914448613738104
vn -1.0 0.0 0.0
vn 0.0 0.9914448613738104 -0.13052619222005157
vn 0.0 -0.9914448613738104 0.13052619222005157
usemtl m_53ac917a-6908-652e-015c-c53640b020ed
f 28/76/19 31/75/19 29/74/19 26/73/19
f 27/80/20 28/79/20 26/78/20 25/77/20
f 32/84/21 27/83/21 25/82/21 30/81/21
f 31/88/22 32/87/22 30/86/22 29/85/22
f 30/92/23 25/91/23 26/90/23 29/89/23
f 31/96/24 28/95/24 27/94/24 32/93/24
o 8520dc51-95ff-4763-9421-50d72aa01b84
v 0.515625 -0.703125 -1.609375
v 0.515625 -0.703125 -1.640625
v 0.515625 -0.859375 -1.609375
v 0.515625 -0.859375 -1.640625
v 0.484375 -0.703125 -1.640625
v 0.484375 -0.703125 -1.609375
v 0.484375 -0.859375 -1.640625
v 0.484375 -0.859375 -1.609375
vt 0.0 0.96875
vt 0.0 1.0
vt 0.15625 1.0
vt 0.15625 0.96875
vt 0.0 0.96875
vt 0.0 1.0
vt 0.15625 1.0
vt 0.15625 0.96875
vt 0.0 0.96875
vt 0.0 1.0
vt 0.15625 1.0
vt 0.15625 0.96875
vt 0.0 0.96875
vt 0.0 1.0
vt 0.15625 1.0
vt 0.15625 0.96875
vt 0.0 1.0
vt 0.03125 1.0
vt 0.03125 0.96875
vt 0.0 0.96875
vt 0.0 1.0
vt 0.03125 1.0
vt 0.03125 0.96875
vt 0.0 0.96875
vn 0.0 0.0 -1.0
vn 1.0 0.0 0.0
vn 0.0 0.0 1.0
vn -1.0 0.0 0.0
vn 0.0 1.0 0.0
vn 0.0 -1.0 0.0
usemtl m_53ac917a-6908-652e-015c-c53640b020ed
f 36/100/25 39/99/25 37/98/25 34/97/25
f 35/104/26 36/103/26 34/102/26 33/101/26
f 40/108/27 35/107/27 33/106/27 38/105/27
f 39/112/28 40/111/28 38/110/28 37/109/28
f 38/116/29 33/115/29 34/114/29 37/113/29
f 39/120/30 36/119/30 35/118/30 40/117/30
o cd9bab0d-e349-4438-b26b-4f87bacf13f6
v 0.53125 -0.90625 -2.234375
v 0.53125 -0.90625 -2.265625
v 0.53125 -1.0 -2.234375
v 0.53125 -1.0 -2.265625
v 0.46875 -0.90625 -2.265625
v 0.46875 -0.90625 -2.234375
v 0.46875 -1.0 -2.265625
v 0.46875 -1.0 -2.234375
vt 0.375 1.0
vt 0.5 1.0
vt 0.5 0.78125
vt 0.375 0.78125
vt 0.375 1.0
vt 0.46875 1.0
vt 0.46875 0.78125
vt 0.375 0.78125
vt 0.375 1.0
vt 0.5 1.0
vt 0.5 0.78125
vt 0.375 0.78125
vt 0.375 1.0
vt 0.46875 1.0
vt 0.46875 0.78125
vt 0.375 0.78125
vt 0.375 1.0
vt 0.5 1.0
vt 0.5 0.84375
vt 0.375 0.84375
vt 0.375 1.0
vt 0.5 1.0
vt 0.5 0.84375
vt 0.375 0.84375
vn 0.0 0.0 -1.0
vn 1.0 0.0 0.0
vn 0.0 0.0 1.0
vn -1.0 0.0 0.0
vn 0.0 1.0 0.0
vn 0.0 -1.0 0.0
usemtl m_d01e7a2a-8f73-2e81-4c23-374b2442e0d3
f 44/124/31 47/123/31 45/122/31 42/121/31
f 43/128/32 44/127/32 42/126/32 41/125/32
f 48/132/33 43/131/33 41/130/33 46/129/33
f 47/136/34 48/135/34 46/134/34 45/133/34
f 46/140/35 41/139/35 42/138/35 45/137/35
f 47/144/36 44/143/36 43/142/36 48/141/36
