# Made in Blockbench 4.11.2
mtllib power_line_bracket_on_fence.mtl

o b1
v 0.640625 0.84375 0.3125
v 0.546875 0.84375 0.3125
v 0.546875 0.96875 0.3125
v 0.640625 0.96875 0.3125
v 0.640625 0.84375 0.6875
v 0.640625 0.96875 0.6875
v 0.546875 0.84375 0.6875
v 0.546875 0.96875 0.6875
vt 0 0.875
vt 0.09375 0.875
vt 0.09375 1
vt 0 1
vt 0 0.875
vt 0.375 0.875
vt 0.375 1
vt 0 1
vt 0 0.875
vt 0.09375 0.875
vt 0.09375 1
vt 0 1
vt 0 0.875
vt 0.375 0.875
vt 0.375 1
vt 0 1
vn 0 0 -1
vn 1 0 0
vn 0 0 1
vn -1 0 0
usemtl m_cb02c6c5-91ad-9c74-ca64-04e675becf3a
f 1/1/1 2/2/1 3/3/1 4/4/1
f 5/5/2 1/6/2 4/7/2 6/8/2
f 7/9/3 5/10/3 6/11/3 8/12/3
f 2/13/4 7/14/4 8/15/4 3/16/4
o b2
v 0.6875 0.96875 0.3125
v 0.3125 0.96875 0.3125
v 0.3125 1 0.3125
v 0.6875 1 0.3125
v 0.6875 0.96875 0.6875
v 0.6875 1 0.6875
v 0.3125 0.96875 0.6875
v 0.3125 1 0.6875
vt 0 0.96875
vt 0.375 0.96875
vt 0.375 1
vt 0 1
vt 0 0.96875
vt 0.375 0.96875
vt 0.375 1
vt 0 1
vt 0 0.96875
vt 0.375 0.96875
vt 0.375 1
vt 0 1
vt 0 0.96875
vt 0.375 0.96875
vt 0.375 1
vt 0 1
vt 0.375 1
vt 0 1
vt 0 0.625
vt 0.375 0.625
vt 0.375 1
vt 0 1
vt 0 0.625
vt 0.375 0.625
vn 0 0 -1
vn 1 0 0
vn 0 0 1
vn -1 0 0
vn 0 1 0
vn 0 -1 0
usemtl m_cb02c6c5-91ad-9c74-ca64-04e675becf3a
f 9/17/5 10/18/5 11/19/5 12/20/5
f 13/21/6 9/22/6 12/23/6 14/24/6
f 15/25/7 13/26/7 14/27/7 16/28/7
f 10/29/8 15/30/8 16/31/8 11/32/8
f 16/33/9 14/34/9 12/35/9 11/36/9
f 10/37/10 9/38/10 13/39/10 15/40/10
o b3
v 0.6875 0.8125 0.3125
v 0.3125 0.8125 0.3125
v 0.3125 0.84375 0.3125
v 0.6875 0.84375 0.3125
v 0.6875 0.8125 0.6875
v 0.6875 0.84375 0.6875
v 0.3125 0.8125 0.6875
v 0.3125 0.84375 0.6875
vt 0 0.96875
vt 0.375 0.96875
vt 0.375 1
vt 0 1
vt 0 0.96875
vt 0.375 0.96875
vt 0.375 1
vt 0 1
vt 0 0.96875
vt 0.375 0.96875
vt 0.375 1
vt 0 1
vt 0 0.96875
vt 0.375 0.96875
vt 0.375 1
vt 0 1
vt 0.375 1
vt 0 1
vt 0 0.625
vt 0.375 0.625
vt 0.375 1
vt 0 1
vt 0 0.625
vt 0.375 0.625
vn 0 0 -1
vn 1 0 0
vn 0 0 1
vn -1 0 0
vn 0 1 0
vn 0 -1 0
usemtl m_cb02c6c5-91ad-9c74-ca64-04e675becf3a
f 17/41/11 18/42/11 19/43/11 20/44/11
f 21/45/12 17/46/12 20/47/12 22/48/12
f 23/49/13 21/50/13 22/51/13 24/52/13
f 18/53/14 23/54/14 24/55/14 19/56/14
f 24/57/15 22/58/15 20/59/15 19/60/15
f 18/61/16 17/62/16 21/63/16 23/64/16
o b4
v 0.453125 0.84375 0.3125
v 0.359375 0.84375 0.3125
v 0.359375 0.96875 0.3125
v 0.453125 0.96875 0.3125
v 0.453125 0.84375 0.6875
v 0.453125 0.96875 0.6875
v 0.359375 0.84375 0.6875
v 0.359375 0.96875 0.6875
vt 0 0.875
vt 0.09375 0.875
vt 0.09375 1
vt 0 1
vt 0 0.875
vt 0.375 0.875
vt 0.375 1
vt 0 1
vt 0 0.875
vt 0.09375 0.875
vt 0.09375 1
vt 0 1
vt 0 0.875
vt 0.375 0.875
vt 0.375 1
vt 0 1
vn 0 0 -1
vn 1 0 0
vn 0 0 1
vn -1 0 0
usemtl m_cb02c6c5-91ad-9c74-ca64-04e675becf3a
f 25/65/17 26/66/17 27/67/17 28/68/17
f 29/69/18 25/70/18 28/71/18 30/72/18
f 31/73/19 29/74/19 30/75/19 32/76/19
f 26/77/20 31/78/20 32/79/20 27/80/20