mtllib cantilever_center_4px.mtl

o 5898ac14-cc18-4cd6-b757-302f3c5a0669
v 1.09375 0.6875 1.375
v 1.09375 1.125 -4.5
v 1.09375 0.6248269428496118 1.375
v 1.09375 1.0547629531935305 -4.398426424618337
v 1.03125 0.6875 1.375
v 1.03125 1.125 -4.5
v 1.03125 0.6248269428496118 1.375
v 1.03125 1.0547629531935305 -4.398426424618337
vt 1.0 0.875
vt 1.0 1.0
vt 0.0 1.0
vt 0.0 0.875
vt 1.0 0.875
vt 1.0 1.0
vt 0.0 1.0
vt 0.0 0.875
vt 1.0 1.0
vt 0.0 1.0
vt 0.0 0.9375
vt 1.0 0.9375
vt 1.0 0.9375
vt 0.0 0.9375
vt 0.0 0.875
vt 1.0 0.875
vt 0.0625 0.875
vt 0.0625 1.0
vt 0.0 1.0
vt 0.0 0.875
vt 0.0625 0.875
vt 0.0625 1.0
vt 0.0 1.0
vt 0.0 0.875
vn 1.0 0.0 0.0
vn -1.0 0.0 0.0
vn 0.0 1.0 0.0
vn 0.0 -1.0 0.0
vn 0.0 0.0 1.0
vn 0.0 0.0 -1.0
usemtl m_1fa7325d-e2d7-2d27-270d-f0a5323757e4
f 4/1/1 2/2/1 1/3/1 3/4/1
f 7/5/2 5/6/2 6/7/2 8/8/2
f 1/9/3 2/10/3 6/11/3 5/12/3
f 4/13/4 3/14/4 7/15/4 8/16/4
f 3/17/5 1/18/5 5/19/5 7/20/5
f 8/21/6 6/22/6 2/23/6 4/24/6
o 80daac04-22a3-4b82-ae23-aa1d3f1ecbc1
v 1.09375 -2.9375 1.375
v 1.09375 1.1427735902424474 -4.525703345889078
v 1.09375 -3.0136602460723543 1.375
v 1.09375 1.0913668984642917 -4.561250526373973
v 1.03125 -2.9375 1.375
v 1.03125 1.1427735902424474 -4.525703345889078
v 1.03125 -3.0136602460723543 1.375
v 1.03125 1.0913668984642917 -4.561250526373973
vt 1.0 0.875
vt 1.0 1.0
vt 0.0 1.0
vt 0.0 0.875
vt 1.0 0.875
vt 1.0 1.0
vt 0.0 1.0
vt 0.0 0.875
vt 1.0 1.0
vt 0.0 1.0
vt 0.0 0.9375
vt 1.0 0.9375
vt 1.0 0.9375
vt 0.0 0.9375
vt 0.0 0.875
vt 1.0 0.875
vt 0.0625 0.875
vt 0.0625 1.0
vt 0.0 1.0
vt 0.0 0.875
vt 0.0625 0.875
vt 0.0625 1.0
vt 0.0 1.0
vt 0.0 0.875
vn 1.0 0.0 0.0
vn -1.0 0.0 0.0
vn 0.0 1.0 0.0
vn 0.0 -1.0 0.0
vn 0.0 0.0 1.0
vn 0.0 0.0 -1.0
usemtl m_1fa7325d-e2d7-2d27-270d-f0a5323757e4
f 12/25/7 10/26/7 9/27/7 11/28/7
f 15/29/8 13/30/8 14/31/8 16/32/8
f 9/33/9 10/34/9 14/35/9 13/36/9
f 12/37/10 11/38/10 15/39/10 16/40/10
f 11/41/11 9/42/11 13/43/11 15/44/11
f 16/45/12 14/46/12 10/47/12 12/48/12
o 44ca1438-7217-4349-9a5c-01f29c86635d
v 1.0859375 -1.5817796384107885 -0.6956323519074044
v 1.0859375 -1.7479159210022144 -4.500778817469321
v 1.0859375 -1.625912824210408 -0.6318116661459894
v 1.0859375 -1.7947463063888638 -4.49873415868657
v 1.0390625 -1.7479159210022144 -4.500778817469321
v 1.0390625 -1.5817796384107885 -0.6956323519074044
v 1.0390625 -1.7947463063888638 -4.49873415868657
v 1.0390625 -1.625912824210408 -0.6318116661459894
vt 0.0 1.0
vt 0.0625 1.0
vt 0.0625 0.875
vt 0.0 0.875
vt 0.0 1.0
vt 1.0 1.0
vt 1.0 0.875
vt 0.0 0.875
vt 0.0 1.0
vt 0.0625 1.0
vt 0.0625 0.875
vt 0.0 0.875
vt 0.0 1.0
vt 1.0 1.0
vt 1.0 0.875
vt 0.0 0.875
vt 0.0 0.9375
vt 0.0 1.0
vt 1.0 1.0
vt 1.0 0.9375
vt 0.0 0.875
vt 0.0 0.9375
vt 1.0 0.9375
vt 1.0 0.875
vn 0.0 -0.043619387365336 -0.9990482215818578
vn 1.0 0.0 0.0
vn 0.0 0.043619387365336 0.9990482215818578
vn -1.0 0.0 0.0
vn 0.0 0.9990482215818578 -0.043619387365336
vn 0.0 -0.9990482215818578 0.043619387365336
usemtl m_53ac917a-6908-652e-015c-c53640b020ed
f 20/52/13 23/51/13 21/50/13 18/49/13
f 19/56/14 20/55/14 18/54/14 17/53/14
f 24/60/15 19/59/15 17/58/15 22/57/15
f 23/64/16 24/63/16 22/62/16 21/61/16
f 22/68/17 17/67/17 18/66/17 21/65/17
f 23/72/18 20/71/18 19/70/18 24/69/18
o 73cd6167-108f-410f-8f1a-af5ae95f635f
v 1.071875 -1.7956180870365608 -3.622535822066934
v 1.071875 -1.8812759006809694 -4.273171512343497
v 1.071875 -1.8575833908724237 -3.614377935053181
v 1.071875 -1.9432412045168328 -4.265013625329744
v 1.053125 -1.8812759006809694 -4.273171512343497
v 1.053125 -1.7956180870365608 -3.622535822066934
v 1.053125 -1.9432412045168328 -4.265013625329744
v 1.053125 -1.8575833908724237 -3.614377935053181
vt 0.0 1.0
vt 0.018750000000000044 1.0
vt 0.018750000000000044 0.9375
vt 0.0 0.9375
vt 0.125 1.0
vt 0.78125 1.0
vt 0.78125 0.9375
vt 0.125 0.9375
vt 0.0 1.0
vt 0.018750000000000044 1.0
vt 0.018750000000000044 0.9375
vt 0.0 0.9375
vt 0.125 1.0
vt 0.78125 1.0
vt 0.78125 0.9375
vt 0.125 0.9375
vt 0.0625 0.98125
vt 0.0625 1.0
vt 0.71875 1.0
vt 0.71875 0.98125
vt 0.0 0.98125
vt 0.0 1.0
vt 0.65625 1.0
vt 0.65625 0.98125
vn 0.0 -0.13052619222005157 -0.9914448613738104
vn 1.0 0.0 0.0
vn 0.0 0.13052619222005157 0.9914448613738104
vn -1.0 0.0 0.0
vn 0.0 0.9914448613738104 -0.13052619222005157
vn 0.0 -0.9914448613738104 0.13052619222005157
usemtl m_53ac917a-6908-652e-015c-c53640b020ed
f 28/76/19 31/75/19 29/74/19 26/73/19
f 27/80/20 28/79/20 26/78/20 25/77/20
f 32/84/21 27/83/21 25/82/21 30/81/21
f 31/88/22 32/87/22 30/86/22 29/85/22
f 30/92/23 25/91/23 26/90/23 29/89/23
f 31/96/24 28/95/24 27/94/24 32/93/24
o 19326781-3d58-4c28-bc48-f363408e5d19
v 1.078125 -1.703125 -3.609375
v 1.078125 -1.703125 -3.640625
v 1.078125 -1.859375 -3.609375
v 1.078125 -1.859375 -3.640625
v 1.046875 -1.703125 -3.640625
v 1.046875 -1.703125 -3.609375
v 1.046875 -1.859375 -3.640625
v 1.046875 -1.859375 -3.609375
vt 0.0 0.96875
vt 0.0 1.0
vt 0.15625 1.0
vt 0.15625 0.96875
vt 0.0 0.96875
vt 0.0 1.0
vt 0.15625 1.0
vt 0.15625 0.96875
vt 0.0 0.96875
vt 0.0 1.0
vt 0.15625 1.0
vt 0.15625 0.96875
vt 0.0 0.96875
vt 0.0 1.0
vt 0.15625 1.0
vt 0.15625 0.96875
vt 0.0 1.0
vt 0.03125 1.0
vt 0.03125 0.96875
vt 0.0 0.96875
vt 0.0 1.0
vt 0.03125 1.0
vt 0.03125 0.96875
vt 0.0 0.96875
vn 0.0 0.0 -1.0
vn 1.0 0.0 0.0
vn 0.0 0.0 1.0
vn -1.0 0.0 0.0
vn 0.0 1.0 0.0
vn 0.0 -1.0 0.0
usemtl m_53ac917a-6908-652e-015c-c53640b020ed
f 36/100/25 39/99/25 37/98/25 34/97/25
f 35/104/26 36/103/26 34/102/26 33/101/26
f 40/108/27 35/107/27 33/106/27 38/105/27
f 39/112/28 40/111/28 38/110/28 37/109/28
f 38/116/29 33/115/29 34/114/29 37/113/29
f 39/120/30 36/119/30 35/118/30 40/117/30
o c15d02ce-c3f1-4d52-baa0-360084bfd0d2
v 1.09375 -1.90625 -4.234375
v 1.09375 -1.90625 -4.265625
v 1.09375 -2.0 -4.234375
v 1.09375 -2.0 -4.265625
v 1.03125 -1.90625 -4.265625
v 1.03125 -1.90625 -4.234375
v 1.03125 -2.0 -4.265625
v 1.03125 -2.0 -4.234375
vt 0.375 1.0
vt 0.5 1.0
vt 0.5 0.78125
vt 0.375 0.78125
vt 0.375 1.0
vt 0.46875 1.0
vt 0.46875 0.78125
vt 0.375 0.78125
vt 0.375 1.0
vt 0.5 1.0
vt 0.5 0.78125
vt 0.375 0.78125
vt 0.375 1.0
vt 0.46875 1.0
vt 0.46875 0.78125
vt 0.375 0.78125
vt 0.375 1.0
vt 0.5 1.0
vt 0.5 0.84375
vt 0.375 0.84375
vt 0.375 1.0
vt 0.5 1.0
vt 0.5 0.84375
vt 0.375 0.84375
vn 0.0 0.0 -1.0
vn 1.0 0.0 0.0
vn 0.0 0.0 1.0
vn -1.0 0.0 0.0
vn 0.0 1.0 0.0
vn 0.0 -1.0 0.0
usemtl m_d01e7a2a-8f73-2e81-4c23-374b2442e0d3
f 44/124/31 47/123/31 45/122/31 42/121/31
f 43/128/32 44/127/32 42/126/32 41/125/32
f 48/132/33 43/131/33 41/130/33 46/129/33
f 47/136/34 48/135/34 46/134/34 45/133/34
f 46/140/35 41/139/35 42/138/35 45/137/35
f 47/144/36 44/143/36 43/142/36 48/141/36
o 5ec085f7-179f-4ce3-a503-5d4793bb97f5
v -0.03125 0.6875 1.375
v -0.03125 0.6875 -5.0
v -0.03125 0.625 1.375
v -0.03125 0.625 -4.890086206896552
v -0.09375 0.6875 1.375
v -0.09375 0.6875 -5.0
v -0.09375 0.625 1.375
v -0.09375 0.625 -4.890086206896552
vt 1.0 0.875
vt 1.0 1.0
vt 0.0 1.0
vt 0.0 0.875
vt 1.0 0.875
vt 1.0 1.0
vt 0.0 1.0
vt 0.0 0.875
vt 1.0 1.0
vt 0.0 1.0
vt 0.0 0.9375
vt 1.0 0.9375
vt 1.0 0.9375
vt 0.0 0.9375
vt 0.0 0.875
vt 1.0 0.875
vt 0.0625 0.875
vt 0.0625 1.0
vt 0.0 1.0
vt 0.0 0.875
vt 0.0625 0.875
vt 0.0625 1.0
vt 0.0 1.0
vt 0.0 0.875
vn 1.0 0.0 0.0
vn -1.0 0.0 0.0
vn 0.0 1.0 0.0
vn 0.0 -1.0 0.0
vn 0.0 0.0 1.0
vn 0.0 0.0 -1.0
usemtl m_1fa7325d-e2d7-2d27-270d-f0a5323757e4
f 52/145/37 50/146/37 49/147/37 51/148/37
f 55/149/38 53/150/38 54/151/38 56/152/38
f 49/153/39 50/154/39 54/155/39 53/156/39
f 52/157/40 51/158/40 55/159/40 56/160/40
f 51/161/41 49/162/41 53/163/41 55/164/41
f 56/165/42 54/166/42 50/167/42 52/168/42
o 06d7b6e9-41f8-4143-b89d-1531654f62c1
v -0.03125 -2.9375 1.375
v -0.03125 0.7029469445152638 -5.027165316216498
v -0.03125 -3.009397745803297 1.375
v -0.03125 0.6486163120822668 -5.058059205247027
v -0.09375 -2.9375 1.375
v -0.09375 0.7029469445152638 -5.027165316216498
v -0.09375 -3.009397745803297 1.375
v -0.09375 0.6486163120822668 -5.058059205247027
vt 1.0 0.875
vt 1.0 1.0
vt 0.0 1.0
vt 0.0 0.875
vt 1.0 0.875
vt 1.0 1.0
vt 0.0 1.0
vt 0.0 0.875
vt 1.0 1.0
vt 0.0 1.0
vt 0.0 0.9375
vt 1.0 0.9375
vt 1.0 0.9375
vt 0.0 0.9375
vt 0.0 0.875
vt 1.0 0.875
vt 0.0625 0.875
vt 0.0625 1.0
vt 0.0 1.0
vt 0.0 0.875
vt 0.0625 0.875
vt 0.0625 1.0
vt 0.0 1.0
vt 0.0 0.875
vn 1.0 0.0 0.0
vn -1.0 0.0 0.0
vn 0.0 1.0 0.0
vn 0.0 -1.0 0.0
vn 0.0 0.0 1.0
vn 0.0 0.0 -1.0
usemtl m_1fa7325d-e2d7-2d27-270d-f0a5323757e4
f 60/169/43 58/170/43 57/171/43 59/172/43
f 63/173/44 61/174/44 62/175/44 64/176/44
f 57/177/45 58/178/45 62/179/45 61/180/45
f 60/181/46 59/182/46 63/183/46 64/184/46
f 59/185/47 57/186/47 61/187/47 63/188/47
f 64/189/48 62/190/48 58/191/48 60/192/48
o a27a1cb1-8de3-4a4d-83c7-e8e976a6b614
v -0.0390625 -1.530611435001471 -1.2256242017549361
v -0.0390625 -1.7172212833781424 -5.499692418002505
v -0.0390625 -1.574185354242168 -1.1489942058488822
v -0.0390625 -1.764051668764792 -5.497647759219755
v -0.0859375 -1.7172212833781424 -5.499692418002505
v -0.0859375 -1.530611435001471 -1.2256242017549361
v -0.0859375 -1.764051668764792 -5.497647759219755
v -0.0859375 -1.574185354242168 -1.1489942058488822
vt 0.0 1.0
vt 0.0625 1.0
vt 0.0625 0.875
vt 0.0 0.875
vt 0.0 1.0
vt 1.0 1.0
vt 1.0 0.875
vt 0.0 0.875
vt 0.0 1.0
vt 0.0625 1.0
vt 0.0625 0.875
vt 0.0 0.875
vt 0.0 1.0
vt 1.0 1.0
vt 1.0 0.875
vt 0.0 0.875
vt 0.0 0.9375
vt 0.0 1.0
vt 1.0 1.0
vt 1.0 0.9375
vt 0.0 0.875
vt 0.0 0.9375
vt 1.0 0.9375
vt 1.0 0.875
vn 0.0 -0.043619387365336 -0.9990482215818578
vn 1.0 0.0 0.0
vn 0.0 0.043619387365336 0.9990482215818578
vn -1.0 0.0 0.0
vn 0.0 0.9990482215818578 -0.043619387365336
vn 0.0 -0.9990482215818578 0.043619387365336
usemtl m_53ac917a-6908-652e-015c-c53640b020ed
f 68/196/49 71/195/49 69/194/49 66/193/49
f 67/200/50 68/199/50 66/198/50 65/197/50
f 72/204/51 67/203/51 65/202/51 70/201/51
f 71/208/52 72/207/52 70/206/52 69/205/52
f 70/212/53 65/211/53 66/210/53 69/209/53
f 71/216/54 68/215/54 67/214/54 72/213/54
o b994b3e7-6295-4594-9aaf-cc79a50d19b3
v -0.05312499999999998 -1.881653111424452 -4.72661813510935
v -0.05312499999999998 -1.7959952977800429 -5.377253825385912
v -0.05312499999999998 -1.9436184152603149 -4.734776022123103
v -0.05312499999999998 -1.857960601615906 -5.385411712399666
v -0.07187500000000002 -1.7959952977800429 -5.377253825385912
v -0.07187500000000002 -1.881653111424452 -4.72661813510935
v -0.07187500000000002 -1.857960601615906 -5.385411712399666
v -0.07187500000000002 -1.9436184152603149 -4.734776022123103
vt 0.0 1.0
vt 0.018750000000000044 1.0
vt 0.018750000000000044 0.9375
vt 0.0 0.9375
vt 0.125 1.0
vt 0.78125 1.0
vt 0.78125 0.9375
vt 0.125 0.9375
vt 0.0 1.0
vt 0.018750000000000044 1.0
vt 0.018750000000000044 0.9375
vt 0.0 0.9375
vt 0.125 1.0
vt 0.78125 1.0
vt 0.78125 0.9375
vt 0.125 0.9375
vt 0.0625 0.98125
vt 0.0625 1.0
vt 0.71875 1.0
vt 0.71875 0.98125
vt 0.0 0.98125
vt 0.0 1.0
vt 0.65625 1.0
vt 0.65625 0.98125
vn 0.0 0.13052619222005157 -0.9914448613738104
vn 1.0 0.0 0.0
vn 0.0 -0.13052619222005157 0.9914448613738104
vn -1.0 0.0 0.0
vn 0.0 0.9914448613738104 0.13052619222005157
vn 0.0 -0.9914448613738104 -0.13052619222005157
usemtl m_53ac917a-6908-652e-015c-c53640b020ed
f 76/220/55 79/219/55 77/218/55 74/217/55
f 75/224/56 76/223/56 74/222/56 73/221/56
f 80/228/57 75/227/57 73/226/57 78/225/57
f 79/232/58 80/231/58 78/230/58 77/229/58
f 78/236/59 73/235/59 74/234/59 77/233/59
f 79/240/60 76/239/60 75/238/60 80/237/60
o a0f7db0c-0b39-48fb-9964-0870dc94bb15
v -0.046875 -1.703125 -5.375
v -0.046875 -1.703125 -5.40625
v -0.046875 -1.859375 -5.375
v -0.046875 -1.859375 -5.40625
v -0.078125 -1.703125 -5.40625
v -0.078125 -1.703125 -5.375
v -0.078125 -1.859375 -5.40625
v -0.078125 -1.859375 -5.375
vt 0.0 0.96875
vt 0.0 1.0
vt 0.15625 1.0
vt 0.15625 0.96875
vt 0.0 0.96875
vt 0.0 1.0
vt 0.15625 1.0
vt 0.15625 0.96875
vt 0.0 0.96875
vt 0.0 1.0
vt 0.15625 1.0
vt 0.15625 0.96875
vt 0.0 0.96875
vt 0.0 1.0
vt 0.15625 1.0
vt 0.15625 0.96875
vt 0.0 1.0
vt 0.03125 1.0
vt 0.03125 0.96875
vt 0.0 0.96875
vt 0.0 1.0
vt 0.03125 1.0
vt 0.03125 0.96875
vt 0.0 0.96875
vn 0.0 0.0 -1.0
vn 1.0 0.0 0.0
vn 0.0 0.0 1.0
vn -1.0 0.0 0.0
vn 0.0 1.0 0.0
vn 0.0 -1.0 0.0
usemtl m_53ac917a-6908-652e-015c-c53640b020ed
f 84/244/61 87/243/61 85/242/61 82/241/61
f 83/248/62 84/247/62 82/246/62 81/245/62
f 88/252/63 83/251/63 81/250/63 86/249/63
f 87/256/64 88/255/64 86/254/64 85/253/64
f 86/260/65 81/259/65 82/258/65 85/257/65
f 87/264/66 84/263/66 83/262/66 88/261/66
o 136da06a-5e7c-4298-bbfd-adb7f2c4a224
v -0.03125 -1.90625 -4.734375
v -0.03125 -1.90625 -4.765625
v -0.03125 -2.0 -4.734375
v -0.03125 -2.0 -4.765625
v -0.09375 -1.90625 -4.765625
v -0.09375 -1.90625 -4.734375
v -0.09375 -2.0 -4.765625
v -0.09375 -2.0 -4.734375
vt 0.375 1.0
vt 0.5 1.0
vt 0.5 0.78125
vt 0.375 0.78125
vt 0.375 1.0
vt 0.46875 1.0
vt 0.46875 0.78125
vt 0.375 0.78125
vt 0.375 1.0
vt 0.5 1.0
vt 0.5 0.78125
vt 0.375 0.78125
vt 0.375 1.0
vt 0.46875 1.0
vt 0.46875 0.78125
vt 0.375 0.78125
vt 0.375 1.0
vt 0.5 1.0
vt 0.5 0.84375
vt 0.375 0.84375
vt 0.375 1.0
vt 0.5 1.0
vt 0.5 0.84375
vt 0.375 0.84375
vn 0.0 0.0 -1.0
vn 1.0 0.0 0.0
vn 0.0 0.0 1.0
vn -1.0 0.0 0.0
vn 0.0 1.0 0.0
vn 0.0 -1.0 0.0
usemtl m_d01e7a2a-8f73-2e81-4c23-374b2442e0d3
f 92/268/67 95/267/67 93/266/67 90/265/67
f 91/272/68 92/271/68 90/270/68 89/269/68
f 96/276/69 91/275/69 89/274/69 94/273/69
f 95/280/70 96/279/70 94/278/70 93/277/70
f 94/284/71 89/283/71 90/282/71 93/281/71
f 95/288/72 92/287/72 91/286/72 96/285/72
