# Made in Blockbench 4.12.1
mtllib contact_wire_holder_outer.mtl

o p33
v 0.5234375 -0.6054466032544689 0.060368649801005425
v 0.5234375 -0.7172212833781424 -2.4996924180025055
v 0.5234375 -0.6522769886411185 0.06241330858375549
v 0.5234375 -0.764051668764792 -2.4976477592197552
v 0.4765625 -0.7172212833781424 -2.4996924180025055
v 0.4765625 -0.6054466032544689 0.060368649801005425
v 0.4765625 -0.764051668764792 -2.4976477592197552
v 0.4765625 -0.6522769886411185 0.06241330858375549
vt 0 1
vt 0.0625 1
vt 0.0625 0.875
vt 0 0.875
vt 0 1
vt 1 1
vt 1 0.875
vt 0 0.875
vt 0 1
vt 0.0625 1
vt 0.0625 0.875
vt 0 0.875
vt 0 1
vt 1 1
vt 1 0.875
vt 0 0.875
vt 0 0.9375
vt 0 1
vt 1 1
vt 1 0.9375
vt 0 0.875
vt 0 0.9375
vt 1 0.9375
vt 1 0.875
vn 0 -0.043619387365336 -0.9990482215818578
vn 1 0 0
vn 0 0.043619387365336 0.9990482215818578
vn -1 0 0
vn 0 0.9990482215818578 -0.043619387365336
vn 0 -0.9990482215818578 0.043619387365336
usemtl m_53ac917a-6908-652e-015c-c53640b020ed
f 4/4/1 7/3/1 5/2/1 2/1/1
f 3/8/2 4/7/2 2/6/2 1/5/2
f 8/12/3 3/11/3 1/10/3 6/9/3
f 7/16/4 8/15/4 6/14/4 5/13/4
f 6/20/5 1/19/5 2/18/5 5/17/5
f 7/24/6 4/23/6 3/22/6 8/21/6
o p30
v 0.509375 -0.8816531114244518 -1.7266181351093495
v 0.509375 -0.7959952977800429 -2.3772538253859126
v 0.509375 -0.9436184152603149 -1.7347760221231026
v 0.509375 -0.857960601615906 -2.385411712399666
v 0.490625 -0.7959952977800429 -2.3772538253859126
v 0.490625 -0.8816531114244518 -1.7266181351093495
v 0.490625 -0.857960601615906 -2.385411712399666
v 0.490625 -0.9436184152603149 -1.7347760221231026
vt 0 1
vt 0.018750000000000044 1
vt 0.018750000000000044 0.9375
vt 0 0.9375
vt 0.125 1
vt 0.78125 1
vt 0.78125 0.9375
vt 0.125 0.9375
vt 0 1
vt 0.018750000000000044 1
vt 0.018750000000000044 0.9375
vt 0 0.9375
vt 0.125 1
vt 0.78125 1
vt 0.78125 0.9375
vt 0.125 0.9375
vt 0.0625 0.98125
vt 0.0625 1
vt 0.71875 1
vt 0.71875 0.98125
vt 0 0.98125
vt 0 1
vt 0.65625 1
vt 0.65625 0.98125
vn 0 0.13052619222005157 -0.9914448613738104
vn 1 0 0
vn 0 -0.13052619222005157 0.9914448613738104
vn -1 0 0
vn 0 0.9914448613738104 0.13052619222005157
vn 0 -0.9914448613738104 -0.13052619222005157
usemtl m_53ac917a-6908-652e-015c-c53640b020ed
f 12/28/7 15/27/7 13/26/7 10/25/7
f 11/32/8 12/31/8 10/30/8 9/29/8
f 16/36/9 11/35/9 9/34/9 14/33/9
f 15/40/10 16/39/10 14/38/10 13/37/10
f 14/44/11 9/43/11 10/42/11 13/41/11
f 15/48/12 12/47/12 11/46/12 16/45/12
o p31
v 0.515625 -0.703125 -2.375
v 0.515625 -0.703125 -2.40625
v 0.515625 -0.859375 -2.375
v 0.515625 -0.859375 -2.40625
v 0.484375 -0.703125 -2.40625
v 0.484375 -0.703125 -2.375
v 0.484375 -0.859375 -2.40625
v 0.484375 -0.859375 -2.375
vt 0 0.96875
vt 0 1
vt 0.15625 1
vt 0.15625 0.96875
vt 0 0.96875
vt 0 1
vt 0.15625 1
vt 0.15625 0.96875
vt 0 0.96875
vt 0 1
vt 0.15625 1
vt 0.15625 0.96875
vt 0 0.96875
vt 0 1
vt 0.15625 1
vt 0.15625 0.96875
vt 0 1
vt 0.03125 1
vt 0.03125 0.96875
vt 0 0.96875
vt 0 1
vt 0.03125 1
vt 0.03125 0.96875
vt 0 0.96875
vn 0 0 -1
vn 1 0 0
vn 0 0 1
vn -1 0 0
vn 0 1 0
vn 0 -1 0
usemtl m_53ac917a-6908-652e-015c-c53640b020ed
f 20/52/13 23/51/13 21/50/13 18/49/13
f 19/56/14 20/55/14 18/54/14 17/53/14
f 24/60/15 19/59/15 17/58/15 22/57/15
f 23/64/16 24/63/16 22/62/16 21/61/16
f 22/68/17 17/67/17 18/66/17 21/65/17
f 23/72/18 20/71/18 19/70/18 24/69/18
o p32
v 0.53125 -0.90625 -1.734375
v 0.53125 -0.90625 -1.765625
v 0.53125 -1 -1.734375
v 0.53125 -1 -1.765625
v 0.46875 -0.90625 -1.765625
v 0.46875 -0.90625 -1.734375
v 0.46875 -1 -1.765625
v 0.46875 -1 -1.734375
vt 0.375 1
vt 0.5 1
vt 0.5 0.78125
vt 0.375 0.78125
vt 0.375 1
vt 0.46875 1
vt 0.46875 0.78125
vt 0.375 0.78125
vt 0.375 1
vt 0.5 1
vt 0.5 0.78125
vt 0.375 0.78125
vt 0.375 1
vt 0.46875 1
vt 0.46875 0.78125
vt 0.375 0.78125
vt 0.375 1
vt 0.5 1
vt 0.5 0.84375
vt 0.375 0.84375
vt 0.375 1
vt 0.5 1
vt 0.5 0.84375
vt 0.375 0.84375
vn 0 0 -1
vn 1 0 0
vn 0 0 1
vn -1 0 0
vn 0 1 0
vn 0 -1 0
usemtl m_d01e7a2a-8f73-2e81-4c23-374b2442e0d3
f 28/76/19 31/75/19 29/74/19 26/73/19
f 27/80/20 28/79/20 26/78/20 25/77/20
f 32/84/21 27/83/21 25/82/21 30/81/21
f 31/88/22 32/87/22 30/86/22 29/85/22
f 30/92/23 25/91/23 26/90/23 29/89/23
f 31/96/24 28/95/24 27/94/24 32/93/24